# xmcd
#
# Track frame offsets: 
#        150
#        20246
#        35643
#        49297
#        65179
#        84833
#        100152
#        115663
#        135161
#        150992
#        166018
#        182165
#
# Disc length: 2812 seconds
#
# Revision: 0
# Processed by: cddbd v1.5.2PL0 Copyright (c) Steve Scherf et al.
# Submitted via: ExactAudioCopyFreeDBPlugin 1.0
#
DISCID=930afa0c
DTITLE=Fabian Fritz - Easy Rollin'
DYEAR=2014
DGENRE=
TTITLE0=Big Chief
TTITLE1=On The Sunny Side Of The Street
TTITLE2=Easy Rollin'
TTITLE3=Tipitina
TTITLE4=When The Saints Go Marching In
TTITLE5=Dr. Smith
TTITLE6=Keep On Gwine
TTITLE7=Loberta
TTITLE8=New Orleans Stomp
TTITLE9=Dripping
TTITLE10=Booker's Boogie
TTITLE11=Sunday Morning Hangover
EXTD=
EXTT0=
EXTT1=
EXTT2=
EXTT3=
EXTT4=
EXTT5=
EXTT6=
EXTT7=
EXTT8=
EXTT9=
EXTT10=
EXTT11=
PLAYORDER=
